<svg xmlns="http://www.w3.org/2000/svg" viewBox="0 0 180 36" height="36">
  <!-- Icon bg -->
  <rect width="36" height="36" rx="8" fill="#FFD90F"/>

  <!-- Hair spikes -->
  <polygon points="8,11 10,3 14,10 18,2 22,10 26,3 28,11" fill="#FFD90F" stroke="#C9A200" stroke-width="0.7" stroke-linejoin="round"/>

  <!-- Eyes -->
  <ellipse cx="13" cy="16" rx="4" ry="4.5" fill="white"/>
  <ellipse cx="23" cy="16" rx="4" ry="4.5" fill="white"/>
  <circle cx="14.2" cy="17" r="2" fill="#1a1a1a"/>
  <circle cx="24.2" cy="17" r="2" fill="#1a1a1a"/>

  <!-- Nose -->
  <ellipse cx="18" cy="21.5" rx="2.2" ry="1.4" fill="#E8BE00"/>

  <!-- Mouth + overbite teeth -->
  <path d="M12 25.5 Q18 29 24 25.5" stroke="#8B6508" stroke-width="1" fill="none" stroke-linecap="round"/>
  <rect x="14.5" y="25" width="7" height="2.8" rx="0.3" fill="white"/>

  <!-- Shirt -->
  <path d="M5 31 Q18 34 31 31 L31 36 L5 36 Z" fill="#7ECFCF"/>

  <!-- Text -->
  <text x="44" y="16" font-family="system-ui,-apple-system,sans-serif" font-size="11" font-weight="800" letter-spacing="0.3" fill="#FFD90F" stroke="#A07800" stroke-width="0.3">Ralph</text>
  <text x="44" y="30" font-family="system-ui,-apple-system,sans-serif" font-size="11" font-weight="800" letter-spacing="0.3" fill="#E2E8F0">Grip</text>
</svg>
